<svg class="nav__secondary--icon snapchat" viewBox="0 0 24 22" version="1.1" xmlns="http://www.w3.org/2000/svg" xmlns:xlink="http://www.w3.org/1999/xlink">
    <path d="M23.6253945,16.516 C21.2683945,15.904 19.4643945,14.489 18.5553945,12.535 L20.7493945,10.829 C21.2493945,10.439 21.4503945,9.773 21.2503945,9.171 C21.0153945,8.47 20.3003945,8.025 19.5503945,8.172 L18.0153945,8.447 C18.4373945,5.879 17.9343945,3.599 16.6003945,2.028 C15.4893945,0.72 13.8543945,0 11.9993945,0 C10.1433945,0 8.50839449,0.721 7.39839449,2.029 C6.06339449,3.601 5.56239449,5.882 5.99039449,8.466 C5.33439449,8.348 4.46139449,8.183 4.45939449,8.182 C3.71039449,8.035 2.98239449,8.471 2.74839449,9.174 C2.54839449,9.774 2.74939449,10.438 3.24939449,10.826 L5.45339449,12.533 C4.53539449,14.489 2.73139449,15.904 0.374394494,16.516 C0.141394494,16.577 -0.0166055064,16.796 0.0013944936,17.037 C0.0483944936,17.661 0.403394494,18.406 1.83539449,18.406 C2.11739449,18.406 2.41539449,18.381 2.69939449,18.356 C2.93439449,18.336 3.15739449,18.316 3.35339449,18.316 C3.54439449,18.316 3.62139449,18.338 3.61839449,18.323 C3.99039449,18.797 4.00039449,19.495 4.00039449,19.5 C4.00039449,19.776 4.22439449,20 4.50039449,20 L6.50039449,20 C7.05139449,20 7.75239449,20.387 8.49439449,20.797 C9.51639449,21.361 10.6743945,22 11.9993945,22 C13.3243945,22 14.4823945,21.361 15.5043945,20.797 C16.2473945,20.387 16.9483945,20 17.4993945,20 L19.4993945,20 C19.7733945,20 19.9973945,19.776 19.9993945,19.502 C19.9993945,19.495 20.0103945,18.787 20.3493945,18.349 C20.3553945,18.345 20.4213945,18.316 20.6463945,18.316 C20.8423945,18.316 21.0653945,18.336 21.3003945,18.356 C21.5843945,18.381 21.8823945,18.406 22.1643945,18.406 C23.5963945,18.406 23.9513945,17.661 23.9983945,17.037 C24.0163945,16.796 23.8583945,16.577 23.6253945,16.516" id="Fill-53"></path>
</svg>